# xmcd CD database file
#
# Track frame offsets:
#	150
#	11462
#	21992
#	36082
#	47270
#	62950
#	75342
#	89945
#	101942
#	108160
#	116600
#	129517
#	139152
#	144702
#	155870
#	164550
#	179502
#	186030
#	198932
#	210530
#
# Disc length: 2973 seconds
#
# Revision: 5
# Processed by: cddbd v1.5.2PL0 Copyright (c) Steve Scherf et al.
# Submitted via: CDex 1.51
#
DISCID=200b9b14
DTITLE=Nicolas de Grigny - Livre d'orgue (John Grew, Orgues de l'Université McGill à Montréal)
DYEAR=1998
DGENRE=Grandes Orgues
TTITLE0=Veni Creator Spiritus - Veni Creator Spiritus en taille à 5  ...  [CD 2 - HYMNES - 1998]
TTITLE1=Veni Creator Spiritus - Fugue à 5
TTITLE2=Veni Creator Spiritus - Duo
TTITLE3=Veni Creator Spiritus - Récit de Cromorne
TTITLE4=Veni Creator Spiritus - Dialogue sur les Grands Jeux
TTITLE5=Pange lingua - Pange lingua en taille à 4
TTITLE6=Pange lingua - Fugue à 5
TTITLE7=Pange lingua - Récit du chant de l'Hymne précédent
TTITLE8=Verbum supernum - Verbum supernum
TTITLE9=Verbum supernum - Fugue à 5
TTITLE10=Verbum supernum - Récit en Dialogue
TTITLE11=Verbum supernum - Récit de Basse de Trompette ou de Cromorne
TTITLE12=Ave maris stella - Ave maris stella
TTITLE13=Ave maris stella - Fugue à 4
TTITLE14=Ave maris stella - Duo
TTITLE15=Ave maris stella - Dialogue sur les Grands Jeux
TTITLE16=A Solis ortus - A Solis ortus
TTITLE17=A Solis ortus - Fugue à 5
TTITLE18=A Solis ortus - Trio
TTITLE19=A Solis ortus - Point d'Orgue sur les Grands Jeux
EXTD=
EXTT0=
EXTT1=
EXTT2=
EXTT3=
EXTT4=
EXTT5=
EXTT6=
EXTT7=
EXTT8=
EXTT9=
EXTT10=
EXTT11=
EXTT12=
EXTT13=
EXTT14=
EXTT15=
EXTT16=
EXTT17=
EXTT18=
EXTT19=
PLAYORDER=
